
<svg xmlns="http://www.w3.org/2000/svg" viewBox="0 0 64 64">
  <defs>
    <linearGradient id="g" x1="0" x2="1" y1="0" y2="1">
      <stop offset="0%" stop-color="#0A4D8C"/>
      <stop offset="100%" stop-color="#19A0E6"/>
    </linearGradient>
  </defs>
  <rect width="64" height="64" rx="12" fill="url(#g)"/>
  <!-- "CAN" bold -->
  <g fill="#FFFFFF">
    <path d="M16 41c-3.9 0-7-3.1-7-7s3.1-7 7-7c1.8 0 3.4.7 4.6 1.8l-2.2 2.3c-.6-.6-1.4-1-2.4-1-2 0-3.5 1.6-3.5 3.8S14 38.8 16 38.8c1 0 1.8-.4 2.4-1l2.2 2.3A6.4 6.4 0 0 1 16 41z"/>
    <path d="M24.5 27.4H28l5.6 12.8h-3.7l-1-2.5h-5l-1 2.5h-3.6l5.2-12.8zm2.7 7.7-1.6-4-1.6 4h3.2z"/>
    <path d="M36 27.4h3.3l4.8 7.3v-7.3h3.4v12.8h-3.1l-5-7.5v7.5H36z"/>
  </g>
  <!-- small "fs" in corner -->
  <circle cx="50" cy="50" r="10" fill="#FFFFFF" opacity="0.95"/>
  <text x="50" y="54" text-anchor="middle" font-family="Segoe UI, Roboto, Arial, sans-serif"
        font-size="9" font-weight="700" fill="#0A4D8C">fs</text>
</svg>
